<?xml version="1.0" encoding="UTF-8" standalone="no"?>
<!-- Created with Inkscape (http://www.inkscape.org/) -->

<svg
   xmlns:dc="http://purl.org/dc/elements/1.1/"
   xmlns:cc="http://creativecommons.org/ns#"
   xmlns:rdf="http://www.w3.org/1999/02/22-rdf-syntax-ns#"
   xmlns:svg="http://www.w3.org/2000/svg"
   xmlns="http://www.w3.org/2000/svg"
   xmlns:sodipodi="http://sodipodi.sourceforge.net/DTD/sodipodi-0.dtd"
   xmlns:inkscape="http://www.inkscape.org/namespaces/inkscape"
   width="120"
   height="120"
   viewBox="0 0 31.749999 31.750001"
   version="1.1"
   id="svg3770"
   inkscape:version="0.92.3 (2405546, 2018-03-11)"
   sodipodi:docname="motor.svg">
  <defs
     id="defs3764" />
  <sodipodi:namedview
     id="base"
     pagecolor="#ffffff"
     bordercolor="#666666"
     borderopacity="1.0"
     inkscape:pageopacity="0.0"
     inkscape:pageshadow="2"
     inkscape:zoom="0.35"
     inkscape:cx="-177.14286"
     inkscape:cy="331.42857"
     inkscape:document-units="mm"
     inkscape:current-layer="layer1"
     showgrid="false"
     units="px"
     inkscape:window-width="1920"
     inkscape:window-height="1016"
     inkscape:window-x="0"
     inkscape:window-y="29"
     inkscape:window-maximized="1" />
  <metadata
     id="metadata3767">
    <rdf:RDF>
      <cc:Work
         rdf:about="">
        <dc:format>image/svg+xml</dc:format>
        <dc:type
           rdf:resource="http://purl.org/dc/dcmitype/StillImage" />
        <dc:title></dc:title>
      </cc:Work>
    </rdf:RDF>
  </metadata>
  <g
     inkscape:label="Layer 1"
     inkscape:groupmode="layer"
     id="layer1"
     transform="translate(0,-265.24998)">
    <g
       transform="matrix(3.2777606,0,0,2.9779439,1.2432039,-594.87559)"
       id="g26">
      <path
         style="fill:#000000;stroke:none"
         d="M 5.0270827,294.35415 H 1.852083 v 0.26458 h 3.1749997 z"
         id="path2"
         inkscape:connector-curvature="0" />
      <path
         style="fill:#000000;stroke:none"
         d="m 5.0270827,294.08957 v -0.33073 H 1.852083 v 0.33073 z"
         id="path4"
         inkscape:connector-curvature="0" />
      <path
         style="fill:#000000;stroke:none"
         d="m 1.852083,293.03123 v 0.46302 h 3.1749997 v -0.46302 z"
         id="path6"
         inkscape:connector-curvature="0" />
      <path
         style="fill:#000000;stroke:none"
         d="M 5.2916663,295.1479 H 4.7624997 v -0.26458 h 0.5291666 z"
         id="path8"
         inkscape:connector-curvature="0" />
      <path
         style="fill:#000000;stroke:none"
         d="M 2.1166664,295.1479 H 1.5874997 v -0.26458 h 0.5291667 z"
         id="path10"
         inkscape:connector-curvature="0" />
      <path
         style="fill:#000000;stroke:none"
         d="M 5.0270827,292.76665 H 1.852083 v -0.52917 h 3.1749997 z"
         id="path12"
         inkscape:connector-curvature="0" />
      <path
         style="fill:#000000;stroke:none"
         d="M 5.0270827,290.64998 H 1.852083 v -0.26458 h 3.1749997 z"
         id="path14"
         inkscape:connector-curvature="0" />
      <path
         style="fill:#000000;stroke:none"
         d="m 5.0270827,290.91457 v 0.33073 H 1.852083 v -0.33073 z"
         id="path16"
         inkscape:connector-curvature="0" />
      <path
         style="fill:#000000;stroke:none"
         d="m 1.852083,291.9729 v -0.46302 h 3.1749997 v 0.46302 z"
         id="path18"
         inkscape:connector-curvature="0" />
      <path
         style="fill:#000000;stroke:none"
         d="m 0.90467425,290.7029 a 4.4979167,4.4979167 0 0 0 0,3.59833 0.52916664,0.52916664 0 0 0 0.48498935,0.3175 H 1.5874997 V 290.3854 H 1.3896636 a 0.52916664,0.52916664 0 0 0 -0.48498935,0.3175 z"
         id="path20"
         inkscape:connector-curvature="0" />
      <path
         style="fill:#000000;stroke:none"
         d="m 6.5850936,291.9729 a 4.7625,4.7625 0 0 1 0,1.05833 h 1.3524061 v -0.39687 h -0.529167 a 0.13229168,0.13229168 0 0 1 0,-0.26458 h 0.529167 v -0.39688 z"
         id="path22"
         inkscape:connector-curvature="0" />
      <path
         style="fill:#000000;stroke:none"
         d="M 5.9744919,290.7029 A 0.52916664,0.52916664 0 0 0 5.4895027,290.3854 H 5.2916663 v 4.23333 h 0.1978364 a 0.52916664,0.52916664 0 0 0 0.4849892,-0.3175 4.4979167,4.4979167 0 0 0 0,-3.59833 z"
         id="path24"
         inkscape:connector-curvature="0" />
    </g>
  </g>
</svg>
